# xmcd
#
# Track frame offsets:
#	150
#	19676
#	38644
#	54846
#	72300
#	84827
#	99186
#	111613
#	122970
#	136908
#	151154
#	169079
#	180969
#	197453
#	214543
#	231411
#	262018
#
# Disc length: 3507 seconds
#
# Revision: 2
# Processed by: cddbd v1.5.2PL0 Copyright (c) Steve Scherf et al.
# Submitted via: audiograbber 1.83.01
#
DISCID=d90db111
DTITLE=MH1140 Monster Hits - Male Country Hits Of The 80's (MH)
DYEAR=2008
DGENRE=Karaoke
TTITLE0=Trace Adkins - This Ain't No Thinkin' Thing (MH)
TTITLE1=Travis Tritt - I'm Gonna Be Somebody (MH)
TTITLE2=Clint Black - Nobody's Home (MH)
TTITLE3=Alabama - Down Home (MH)
TTITLE4=George Strait - If I Know Me (MH)
TTITLE5=Garth Brooks - Papa Loved Mama (MH)
TTITLE6=Randy Travis - Better Class Of Losers (MH)
TTITLE7=Alan Jackson - She's Got The Rhythm I've Got The Blues (MH)
TTITLE8=Aaron Tippin - You've Got To Stand For Something (MH)
TTITLE9=Tim McGraw - Down On The Farm (MH)
TTITLE10=Brooks and Dunn - How Long Gone (MH)
TTITLE11=Tracy Byrd - Holdin' Heaven (MH)
TTITLE12=Sammy Kershaw - Vidalia (MH)
TTITLE13=Kenny Chesney - She's Got It All (MH)
TTITLE14=Sawyer Brown - The Boys And Me (MH)
TTITLE15=John Michael Montgomery - I Can Love You Like That (MH)
TTITLE16=Data - Data Track
EXTD=
EXTT0=
EXTT1=
EXTT2=
EXTT3=
EXTT4=
EXTT5=
EXTT6=
EXTT7=
EXTT8=
EXTT9=
EXTT10=
EXTT11=
EXTT12=
EXTT13=
EXTT14=
EXTT15=
EXTT16=
PLAYORDER=
